<?xml version="1.0" standalone="no"?>
<!DOCTYPE svg PUBLIC "-//W3C//DTD SVG 20010904//EN"
 "http://www.w3.org/TR/2001/REC-SVG-20010904/DTD/svg10.dtd">
<svg version="1.0" xmlns="http://www.w3.org/2000/svg"
 width="300.000000pt" height="300.000000pt" viewBox="0 0 300.000000 300.000000"
 preserveAspectRatio="xMidYMid meet">
<metadata>
Created by potrace 1.10, written by Peter Selinger 2001-2011
</metadata>
<g transform="translate(0.000000,300.000000) scale(0.100000,-0.100000)"
fill="#000000" stroke="none">
<path d="M1280 2983 c-604 -92 -1090 -536 -1236 -1128 -25 -101 -45 -332 -24
-270 21 61 29 91 35 140 20 144 94 353 174 492 80 139 156 236 264 340 205
196 472 331 747 378 52 9 103 21 112 26 10 5 28 9 40 10 13 0 32 4 43 9 20 9
-103 11 -155 3z"/>
<path d="M1600 2975 c30 -9 98 -24 150 -35 328 -68 562 -190 781 -409 227
-228 343 -454 415 -811 35 -174 47 -194 40 -65 -17 310 -181 659 -427 904
-248 249 -599 413 -909 426 l-105 4 55 -14z"/>
<path d="M1365 2630 c14 -6 1 -9 -43 -9 -39 -1 -61 -5 -57 -11 5 -8 -15 -13
-41 -9 -4 0 -10 -3 -13 -8 -8 -12 -70 -43 -86 -43 -13 0 -154 -97 -181 -125
-8 -7 -14 -18 -14 -24 0 -6 -7 -11 -15 -11 -8 0 -15 -4 -15 -9 0 -5 -6 -16
-14 -24 -44 -43 -116 -185 -116 -227 0 -11 -4 -20 -9 -20 -4 0 -11 -29 -13
-64 -3 -35 -9 -70 -13 -77 -13 -20 -11 -93 3 -107 34 -36 10 -59 -155 -153
-29 -16 -60 -41 -69 -54 -16 -24 -16 -28 1 -66 10 -22 31 -49 47 -60 l28 -20
84 40 c46 23 86 41 89 41 3 0 7 -159 9 -352 l3 -353 27 -74 c32 -88 80 -163
151 -235 52 -54 137 -116 156 -116 6 0 11 -4 11 -8 0 -5 26 -17 58 -27 31 -10
66 -21 77 -25 52 -20 168 -32 246 -26 120 9 169 17 169 27 0 5 10 9 23 10 31
0 109 33 101 42 -4 4 2 7 14 7 12 0 22 5 22 10 0 6 6 10 13 10 16 0 70 44 132
106 102 105 170 262 185 429 4 50 11 99 16 110 10 24 44 54 62 55 17 0 138
-39 169 -55 29 -15 78 -3 87 22 9 22 -60 84 -120 107 -49 19 -243 112 -252
120 -2 3 5 17 17 32 17 22 21 41 21 100 0 50 4 74 12 74 6 0 42 -16 80 -35 68
-36 69 -36 99 -18 30 18 59 68 59 102 0 26 -45 62 -158 126 -73 41 -101 62
-98 72 4 8 6 21 6 29 0 9 5 12 10 9 6 -4 10 20 9 67 -1 52 -3 66 -9 48 -7 -21
-8 -18 -10 20 -1 25 -1 54 -1 66 1 11 -5 27 -13 34 -9 7 -16 23 -16 36 0 14
-4 32 -9 42 -5 9 -15 32 -22 50 -21 56 -84 147 -144 206 -56 55 -193 146 -220
146 -7 0 -16 4 -19 9 -3 5 -16 11 -28 14 -13 3 -50 12 -83 21 -64 16 -277 22
-240 6z m252 -46 c79 -17 186 -70 263 -129 162 -124 260 -327 260 -537 0 -67
-3 -89 -12 -86 -9 3 -15 38 -19 104 -12 187 -66 311 -194 440 -128 130 -280
194 -460 194 -274 0 -521 -168 -616 -419 -30 -79 -51 -207 -44 -263 3 -27 4
-48 1 -48 -2 0 -12 -3 -22 -7 -16 -6 -17 1 -11 98 8 127 24 189 78 299 54 110
178 237 284 292 158 82 315 101 492 62z m36 -68 c212 -72 377 -256 422 -471
16 -74 20 -185 8 -185 -23 1 -31 23 -35 95 -29 428 -492 687 -871 488 -187
-98 -317 -301 -317 -493 0 -59 -3 -71 -20 -80 -19 -10 -20 -8 -20 62 1 276
196 524 472 598 104 29 254 23 361 -14z m-98 -31 c201 -36 382 -190 445 -381
27 -79 42 -217 24 -210 -12 4 -419 242 -525 306 l-46 28 -289 -169 -289 -169
-3 33 c-5 56 26 178 64 256 63 127 195 242 330 286 109 35 177 40 289 20z
m352 -580 c246 -140 454 -258 462 -262 11 -7 10 -17 -9 -53 -12 -25 -23 -46
-25 -48 -2 -3 -177 97 -189 109 -22 21 -26 3 -26 -116 l0 -125 -53 0 -52 0 0
157 0 157 -273 158 c-151 87 -277 158 -280 158 -4 0 -203 -112 -442 -249
l-435 -248 -27 46 c-21 34 -25 48 -15 54 78 49 895 516 904 516 7 1 214 -114
460 -254z m-247 -21 c102 -59 212 -122 245 -141 33 -19 62 -36 64 -38 2 -3 5
-68 6 -145 2 -98 7 -145 16 -156 11 -14 10 -18 -6 -30 -10 -8 -26 -14 -35 -14
-41 0 -200 -138 -200 -174 0 -28 -23 -36 -49 -17 -14 10 -48 29 -76 42 -27 13
-52 27 -55 30 -3 4 -24 13 -48 21 -24 8 -52 22 -63 31 -10 10 -21 17 -24 17
-7 0 -56 42 -74 64 -9 10 -26 30 -38 43 -12 14 -25 34 -28 44 -4 11 -11 19
-16 19 -6 0 -7 5 -4 10 3 6 2 10 -4 10 -5 0 -15 16 -22 35 -16 44 -31 49 -63
20 -87 -80 -138 -256 -117 -400 14 -91 30 -146 54 -185 12 -19 21 -38 19 -42
-1 -5 2 -8 6 -8 4 0 16 -14 25 -30 17 -28 115 -100 138 -100 5 0 12 -6 15 -14
3 -8 12 -12 20 -9 8 3 14 1 14 -4 0 -6 19 -16 41 -23 41 -14 41 -14 20 -31
-50 -41 -146 -55 -236 -35 -98 22 -225 156 -225 237 0 11 -4 19 -9 19 -13 0
-20 110 -27 405 -4 193 -2 264 9 310 l13 59 85 49 c138 80 150 88 239 137 47
26 105 59 130 74 25 14 52 26 60 26 9 0 99 -48 200 -106z m-741 -979 c38 -119
105 -199 204 -246 112 -53 254 -37 359 40 35 26 51 31 98 31 72 0 162 -24 208
-55 37 -25 92 -98 92 -121 0 -30 -148 -111 -255 -139 -79 -20 -249 -20 -334 1
-108 27 -215 88 -301 174 -62 61 -85 93 -123 170 -70 144 -77 193 -77 567 l0
318 53 30 52 31 6 -381 c4 -267 9 -392 18 -420z m392 488 c52 -65 128 -117
273 -187 163 -79 256 -158 302 -258 25 -55 29 -75 29 -153 0 -63 -5 -104 -18
-137 l-18 -46 -40 43 c-63 68 -122 89 -262 91 -126 3 -188 17 -266 61 -97 56
-163 139 -200 252 -53 164 -32 303 71 464 l31 49 32 -69 c18 -37 48 -87 66
-110z m810 -66 c24 -8 62 -25 84 -39 22 -14 58 -31 80 -38 53 -17 172 -77 180
-90 13 -21 -1 -19 -85 15 -47 19 -104 37 -126 41 -38 6 -45 3 -78 -27 -41 -37
-55 -81 -56 -165 0 -64 -31 -186 -66 -259 -26 -57 -138 -205 -154 -205 -18 0
-14 37 7 69 38 56 56 135 51 218 -7 98 -55 199 -131 271 l-55 51 49 55 c88 98
194 135 300 103z"/>
<path d="M1450 1847 c0 -7 -9 -18 -20 -25 -26 -16 -26 -42 1 -49 11 -3 18 -11
15 -19 -3 -7 -1 -16 5 -20 13 -8 61 4 55 15 -3 4 4 15 15 24 16 14 17 21 9 37
-6 11 -15 20 -20 20 -6 0 -10 7 -10 15 0 9 -9 15 -25 15 -14 0 -25 -6 -25 -13z
m64 -43 c20 -7 20 -7 -2 -15 -12 -5 -26 -19 -31 -31 l-8 -23 -7 22 c-4 12 -15
25 -26 28 -16 5 -16 8 8 33 24 24 28 25 36 10 5 -10 18 -21 30 -24z"/>
<path d="M1663 1743 c-7 -3 -13 -11 -13 -18 0 -8 -8 -12 -22 -9 -22 4 -22 4
-3 -5 20 -10 19 -10 -2 -17 -13 -3 -23 -10 -23 -15 0 -18 46 10 59 36 l13 27
12 -23 c6 -13 21 -28 34 -34 12 -5 22 -12 22 -15 0 -3 -10 -10 -22 -15 -13 -6
-28 -21 -34 -34 l-12 -23 -14 28 c-7 16 -23 30 -35 32 -20 3 -21 1 -10 -22 7
-14 14 -20 16 -14 2 6 12 0 22 -13 17 -23 19 -23 44 -8 15 9 27 20 27 25 0 5
6 13 14 17 21 12 17 35 -7 48 -17 9 -19 13 -8 20 11 7 10 9 -3 9 -10 0 -18 4
-18 9 0 11 -21 19 -37 14z"/>
<path d="M1473 1610 c-3 -11 -9 -20 -13 -20 -14 0 -90 -82 -90 -96 0 -8 7 -17
15 -20 8 -4 15 -12 15 -20 0 -7 9 -18 20 -24 11 -6 20 -18 20 -26 0 -8 4 -13
9 -9 6 3 15 -4 21 -15 13 -25 50 -26 57 -2 2 9 19 28 38 42 18 14 31 28 29 32
-3 4 5 12 16 18 11 6 20 16 20 22 0 12 -77 98 -87 97 -4 0 -10 9 -15 20 -10
27 -48 28 -55 1z m37 -7 c0 -34 38 -81 75 -93 l37 -12 -40 -18 c-39 -18 -72
-61 -72 -95 0 -8 -4 -15 -10 -15 -5 0 -10 8 -10 18 0 33 -38 80 -74 92 -36 12
-40 30 -7 30 25 0 71 48 78 82 6 31 23 38 23 11z"/>
<path d="M1761 1554 c-25 -31 -27 -52 -7 -60 8 -3 13 -11 10 -19 -6 -15 32
-27 63 -19 15 4 20 11 16 22 -4 10 -2 13 5 8 7 -4 15 -1 18 8 8 22 -4 68 -16
61 -6 -4 -13 1 -16 9 -10 25 -50 19 -73 -10z m79 -46 c-10 -4 -22 -17 -26 -30
l-7 -23 -8 24 c-5 12 -18 25 -29 28 -19 5 -18 7 8 32 l27 26 26 -25 c24 -23
25 -26 9 -32z"/>
<path d="M1693 1427 c-4 -8 -17 -17 -27 -20 -10 -4 -16 -10 -13 -13 3 -3 -3
-14 -14 -25 -19 -19 -19 -20 3 -49 12 -17 28 -28 34 -26 7 3 14 -4 17 -15 8
-31 39 -22 79 24 43 48 44 50 23 67 -8 7 -12 16 -9 21 3 5 -2 9 -10 9 -8 0
-20 9 -26 20 -12 23 -45 27 -57 7z m41 -29 c6 -13 21 -27 34 -33 24 -10 30
-25 10 -25 -19 0 -48 -31 -48 -52 0 -28 -14 -22 -27 12 -7 18 -21 32 -37 36
-32 8 -34 21 -3 26 13 2 28 15 37 35 16 34 18 34 34 1z"/>
<path d="M2053 1283 c-16 -6 -17 -39 -2 -49 6 -3 18 1 27 10 14 14 14 18 2 30
-8 7 -21 12 -27 9z"/>
<path d="M2980 1447 c0 -26 -76 -353 -95 -411 -47 -141 -135 -305 -227 -426
-50 -66 -187 -207 -243 -250 -74 -57 -101 -76 -152 -107 -148 -88 -303 -148
-488 -188 -198 -42 -215 -47 -215 -52 0 -13 202 8 295 31 545 134 966 556
1101 1101 23 95 44 305 31 305 -4 0 -7 -1 -7 -3z"/>
<path d="M13 1345 c20 -314 183 -659 428 -904 244 -244 588 -408 902 -428 53
-3 97 -4 97 -1 0 3 -44 15 -97 27 -54 11 -120 26 -148 32 -50 11 -103 26 -140
39 -11 4 -38 13 -60 20 -66 21 -235 108 -323 167 -145 96 -307 263 -402 414
-49 79 -130 240 -130 260 0 8 -4 19 -8 25 -17 20 -50 143 -88 323 -13 63 -27
117 -30 120 -4 3 -4 -39 -1 -94z"/>
</g>
</svg>
